<svg width="40" height="40" viewBox="0 0 40 40" fill="none" xmlns="http://www.w3.org/2000/svg">
<path fill-rule="evenodd" clip-rule="evenodd" d="M24.2966 21.8979C27.018 19.429 27.7521 15.3087 25.8435 11.9917C23.6471 8.17458 18.7826 6.86672 14.9783 9.07056C11.174 11.2744 9.87054 16.1554 12.0669 19.9726C14.0327 23.3889 18.1357 24.7953 21.703 23.473L26.1718 31.2394C26.5903 31.9667 27.5171 32.2159 28.242 31.796C28.9668 31.3761 29.2152 30.4461 28.7967 29.7188L24.2966 21.8979ZM24.9685 12.4986C26.8859 15.8309 25.7481 20.0919 22.427 22.0158C19.106 23.9397 14.8593 22.798 12.9419 19.4657C11.0245 16.1334 12.1624 11.8724 15.4834 9.9485C18.8045 8.0246 23.0511 9.16633 24.9685 12.4986Z" fill="black"/>
</svg>
