<svg width="40" height="40" viewBox="0 0 40 40" fill="none" xmlns="http://www.w3.org/2000/svg">
<path fill-rule="evenodd" clip-rule="evenodd" d="M18.8689 9.51317C19.1949 9.29789 19.5741 9.20472 19.944 9.22371C20.313 9.20126 20.6924 9.29045 21.02 9.50185L32.1935 16.7126C32.9649 17.2104 33.157 18.1973 32.6225 18.9169C32.0881 19.6366 31.0295 19.8164 30.2581 19.3186L30.1824 19.2697L30.232 28.6127C30.2382 29.7794 29.229 30.7306 27.9777 30.7372L22.3139 30.7673L22.2634 21.2613L17.7323 21.2854L17.7828 30.7914L12.119 30.8215C10.8678 30.8282 9.84845 29.8878 9.84224 28.7211L9.79264 19.3899L9.73567 19.4276C8.96963 19.9335 7.90921 19.765 7.36715 19.0511C6.82508 18.3372 7.00665 17.3483 7.77269 16.8423L18.8689 9.51317ZM10.9215 18.6443L10.975 28.7151C10.9781 29.2984 11.4878 29.7686 12.1134 29.7653L16.6445 29.7412L16.5995 21.2914C16.5964 20.7081 17.1011 20.2325 17.7267 20.2291L22.2578 20.2051C22.8834 20.2017 23.393 20.6719 23.3961 21.2553L23.4411 29.7051L27.9721 29.681C28.5977 29.6777 29.1024 29.2021 29.0993 28.6187L29.0457 18.5361L19.9612 12.6736L10.9215 18.6443Z" fill="black"/>
</svg>
